<svg width="351" height="350" viewBox="0 0 351 350" fill="none" xmlns="http://www.w3.org/2000/svg">
<rect width="350.089" height="349.83" rx="102.617" fill="#0A0A0D"/>
<path d="M300.708 190.578L291.194 153.489C290.921 152.398 290.042 151.55 288.951 151.277L252.195 142.217C251.922 142.156 251.619 142.126 251.347 142.126C250.468 142.035 249.559 142.308 248.892 142.974L186.865 205.002L178.653 172.943C178.38 171.852 177.501 171.003 176.41 170.731L144.836 162.943L206.833 100.946C207.197 100.582 207.409 100.128 207.561 99.673C207.833 99.067 207.924 98.37 207.742 97.7034L198.228 60.614C197.955 59.5231 197.076 58.6747 195.985 58.4019L159.229 49.3417C158.502 49.1599 157.775 49.2811 157.138 49.5841H157.108C156.926 49.675 156.775 49.7962 156.593 49.9174C156.442 50.0387 156.229 50.0993 156.108 50.2508L50.2944 156.004C50.2944 156.004 50.1126 156.307 49.9914 156.459C49.3247 157.246 49.0823 158.277 49.3853 159.277L59.6576 195.124C59.9606 196.154 60.7485 196.942 61.7485 197.214L96.1713 207.093L106.05 241.485C106.353 242.516 107.141 243.303 108.14 243.576L142.685 253.485L152.593 288.029C152.896 289.059 153.684 289.847 154.684 290.12L190.683 300.453C190.955 300.544 191.258 300.574 191.531 300.574C191.592 300.574 191.652 300.544 191.743 300.544C191.743 300.544 191.773 300.544 191.804 300.544C192.592 300.544 193.379 300.241 193.985 299.635L299.83 193.79C300.193 193.427 300.405 192.972 300.557 192.518C300.829 191.912 300.92 191.215 300.739 190.548L300.708 190.578ZM253.256 231.698L245.529 201.548L262.649 184.457L292.072 192.912L253.286 231.728L253.256 231.698ZM193.228 291.726L185.501 261.575L216.469 230.607L245.892 239.061L193.228 291.726ZM217.106 221.304L209.712 195.548L236.287 202.093L217.106 221.274V221.304ZM240.499 206.578L247.286 233.031L221.439 225.607L240.499 206.547V206.578ZM241.377 197.033L211.257 189.609L249.953 150.913L258.316 180.094L241.377 197.033ZM203.773 197.063L212.136 226.244L181.319 257.061L151.199 249.637L203.773 197.063ZM285.709 156.731L293.436 186.882L264.225 178.488L255.862 149.368L285.709 156.731ZM146.654 245.152L138.927 215.002L150.078 203.851L179.501 212.305L146.654 245.152ZM150.714 194.548L143.321 168.791L169.896 175.337L150.714 194.518V194.548ZM180.895 206.305L155.048 198.881L174.107 179.821L180.895 206.275V206.305ZM145.775 199.517L134.776 210.517L104.656 203.093L137.412 170.337L145.775 199.517ZM111.11 103.855L119.473 133.035L88.3837 164.125L58.2638 156.701L111.11 103.855ZM157.017 57.9474L165.381 87.128L148.715 103.794L118.595 96.3701L157.017 57.9474ZM160.593 138.459L152.866 108.339L169.714 91.4915L199.137 99.9154L160.593 138.459ZM124.443 128.096L117.049 102.34L143.624 108.885L124.443 128.066V128.096ZM147.836 113.369L154.623 139.823L128.806 132.399L147.866 113.339L147.836 113.369ZM123.837 137.368L153.26 145.792L100.323 198.73L92.5957 168.61L123.837 137.368ZM192.773 63.826L200.5 93.9763L171.289 85.5827L162.926 56.4626L192.773 63.826ZM56.7487 162.67L83.3233 169.216L64.1423 188.397L56.7487 162.64V162.67ZM68.4754 192.76L87.5353 173.7L94.3229 200.154L68.5058 192.73L68.4754 192.76ZM111.474 238.183L103.11 209.062L132.958 216.426L140.685 246.576L111.474 238.183ZM149.684 255.606L176.259 262.151L157.078 281.332L149.684 255.576V255.606ZM161.411 285.696L180.471 266.636L187.258 293.089L161.411 285.665V285.696Z" fill="#655EA8"/>
</svg>
